<mxfile host="app.diagrams.net" modified="2023-09-06T23:09:56.608Z" agent="Mozilla/5.0 (X11; Linux x86_64; rv:109.0) Gecko/20100101 Firefox/115.0" etag="EB1oQtRq1IhDef33t39U" version="21.7.2" type="device">
  <diagram name="Page-1" id="8iShGkhwyZdAFY4MFy_2">
    <mxGraphModel dx="954" dy="602" grid="1" gridSize="10" guides="1" tooltips="1" connect="1" arrows="1" fold="1" page="1" pageScale="1" pageWidth="850" pageHeight="1100" math="0" shadow="0">
      <root>
        <mxCell id="0" />
        <mxCell id="1" parent="0" />
        <mxCell id="FehOEN-7--DoPy8ezT0s-1" value="&lt;div&gt;FIM&lt;/div&gt;" style="strokeWidth=2;html=1;shape=mxgraph.flowchart.terminator;whiteSpace=wrap;" vertex="1" parent="1">
          <mxGeometry x="605" y="470" width="100" height="60" as="geometry" />
        </mxCell>
        <mxCell id="FehOEN-7--DoPy8ezT0s-7" value="" style="edgeStyle=orthogonalEdgeStyle;rounded=0;orthogonalLoop=1;jettySize=auto;html=1;" edge="1" parent="1" source="FehOEN-7--DoPy8ezT0s-2" target="FehOEN-7--DoPy8ezT0s-3">
          <mxGeometry relative="1" as="geometry" />
        </mxCell>
        <mxCell id="FehOEN-7--DoPy8ezT0s-2" value="&lt;div&gt;INICIO&lt;/div&gt;" style="strokeWidth=2;html=1;shape=mxgraph.flowchart.terminator;whiteSpace=wrap;" vertex="1" parent="1">
          <mxGeometry x="70" y="40" width="100" height="60" as="geometry" />
        </mxCell>
        <mxCell id="FehOEN-7--DoPy8ezT0s-6" value="" style="edgeStyle=orthogonalEdgeStyle;rounded=0;orthogonalLoop=1;jettySize=auto;html=1;" edge="1" parent="1" source="FehOEN-7--DoPy8ezT0s-3" target="FehOEN-7--DoPy8ezT0s-4">
          <mxGeometry relative="1" as="geometry" />
        </mxCell>
        <mxCell id="FehOEN-7--DoPy8ezT0s-3" value="&lt;div&gt;DECLARE nota1, nota2 e resultado como float&lt;/div&gt;" style="rounded=0;whiteSpace=wrap;html=1;" vertex="1" parent="1">
          <mxGeometry x="60" y="140" width="120" height="60" as="geometry" />
        </mxCell>
        <mxCell id="FehOEN-7--DoPy8ezT0s-19" value="" style="edgeStyle=orthogonalEdgeStyle;rounded=0;orthogonalLoop=1;jettySize=auto;html=1;" edge="1" parent="1" source="FehOEN-7--DoPy8ezT0s-4" target="FehOEN-7--DoPy8ezT0s-5">
          <mxGeometry relative="1" as="geometry" />
        </mxCell>
        <mxCell id="FehOEN-7--DoPy8ezT0s-4" value="&quot;Escreva a primeira nota&quot;" style="strokeWidth=2;html=1;shape=mxgraph.flowchart.document2;whiteSpace=wrap;size=0.25;" vertex="1" parent="1">
          <mxGeometry x="225" y="130" width="110" height="80" as="geometry" />
        </mxCell>
        <mxCell id="FehOEN-7--DoPy8ezT0s-12" style="edgeStyle=orthogonalEdgeStyle;rounded=0;orthogonalLoop=1;jettySize=auto;html=1;exitX=1;exitY=0.5;exitDx=0;exitDy=0;entryX=0;entryY=0.5;entryDx=0;entryDy=0;entryPerimeter=0;" edge="1" parent="1" source="FehOEN-7--DoPy8ezT0s-5" target="FehOEN-7--DoPy8ezT0s-8">
          <mxGeometry relative="1" as="geometry" />
        </mxCell>
        <mxCell id="FehOEN-7--DoPy8ezT0s-5" value="LEIA nota1" style="shape=parallelogram;perimeter=parallelogramPerimeter;whiteSpace=wrap;html=1;fixedSize=1;size=10;" vertex="1" parent="1">
          <mxGeometry x="220" y="240" width="120" height="60" as="geometry" />
        </mxCell>
        <mxCell id="FehOEN-7--DoPy8ezT0s-20" value="" style="edgeStyle=orthogonalEdgeStyle;rounded=0;orthogonalLoop=1;jettySize=auto;html=1;" edge="1" parent="1" source="FehOEN-7--DoPy8ezT0s-8" target="FehOEN-7--DoPy8ezT0s-9">
          <mxGeometry relative="1" as="geometry" />
        </mxCell>
        <mxCell id="FehOEN-7--DoPy8ezT0s-8" value="&quot;Escreva a segunda nota&quot;" style="strokeWidth=2;html=1;shape=mxgraph.flowchart.document2;whiteSpace=wrap;size=0.25;" vertex="1" parent="1">
          <mxGeometry x="385" y="130" width="110" height="80" as="geometry" />
        </mxCell>
        <mxCell id="FehOEN-7--DoPy8ezT0s-13" style="edgeStyle=orthogonalEdgeStyle;rounded=0;orthogonalLoop=1;jettySize=auto;html=1;entryX=0;entryY=0.5;entryDx=0;entryDy=0;" edge="1" parent="1" source="FehOEN-7--DoPy8ezT0s-9" target="FehOEN-7--DoPy8ezT0s-10">
          <mxGeometry relative="1" as="geometry" />
        </mxCell>
        <mxCell id="FehOEN-7--DoPy8ezT0s-9" value="&lt;div&gt;LEIA nota2&lt;/div&gt;" style="shape=parallelogram;perimeter=parallelogramPerimeter;whiteSpace=wrap;html=1;fixedSize=1;size=10;" vertex="1" parent="1">
          <mxGeometry x="380" y="240" width="120" height="60" as="geometry" />
        </mxCell>
        <mxCell id="FehOEN-7--DoPy8ezT0s-16" value="" style="edgeStyle=orthogonalEdgeStyle;rounded=0;orthogonalLoop=1;jettySize=auto;html=1;" edge="1" parent="1" source="FehOEN-7--DoPy8ezT0s-10" target="FehOEN-7--DoPy8ezT0s-11">
          <mxGeometry relative="1" as="geometry" />
        </mxCell>
        <mxCell id="FehOEN-7--DoPy8ezT0s-10" value="resultado = nota1 * 2 + nota2 * 3 / 5" style="rounded=0;whiteSpace=wrap;html=1;" vertex="1" parent="1">
          <mxGeometry x="550" y="150" width="210" height="90" as="geometry" />
        </mxCell>
        <mxCell id="FehOEN-7--DoPy8ezT0s-17" value="" style="edgeStyle=orthogonalEdgeStyle;rounded=0;orthogonalLoop=1;jettySize=auto;html=1;" edge="1" parent="1" source="FehOEN-7--DoPy8ezT0s-11" target="FehOEN-7--DoPy8ezT0s-1">
          <mxGeometry relative="1" as="geometry" />
        </mxCell>
        <mxCell id="FehOEN-7--DoPy8ezT0s-11" value="&quot;A média ponderada das notas informadas é {resultado}&quot; " style="strokeWidth=2;html=1;shape=mxgraph.flowchart.document2;whiteSpace=wrap;size=0.10714285714285714;" vertex="1" parent="1">
          <mxGeometry x="560" y="290" width="190" height="140" as="geometry" />
        </mxCell>
      </root>
    </mxGraphModel>
  </diagram>
</mxfile>
